<?xml version="1.0" standalone="no"?>
<!DOCTYPE svg PUBLIC "-//W3C//DTD SVG 20010904//EN"
 "http://www.w3.org/TR/2001/REC-SVG-20010904/DTD/svg10.dtd">
<svg version="1.0" xmlns="http://www.w3.org/2000/svg"
 width="257.000000pt" height="257.000000pt" viewBox="0 0 257.000000 257.000000"
 preserveAspectRatio="xMidYMid meet">
<metadata>
Created by potrace 1.11, written by Peter Selinger 2001-2013
</metadata>
<g transform="translate(0.000000,257.000000) scale(0.100000,-0.100000)"
fill="#000000" stroke="none">
<path d="M1130 2500 c0 -6 -5 -8 -10 -5 -6 4 -25 -3 -43 -14 -110 -68 -125
-104 -126 -320 -1 -91 -5 -181 -10 -199 -14 -47 -92 -202 -102 -202 -5 0 -9
-9 -9 -20 0 -11 -4 -20 -9 -20 -6 0 -20 -18 -32 -40 -13 -22 -26 -40 -31 -40
-4 0 -8 -7 -8 -15 0 -8 -4 -15 -10 -15 -5 0 -10 -5 -10 -11 0 -5 -18 -37 -40
-70 -23 -33 -38 -64 -35 -69 3 -6 2 -10 -3 -10 -6 0 -15 -13 -21 -30 -5 -16
-15 -30 -20 -30 -6 0 -10 -3 -9 -7 3 -14 -14 -63 -21 -63 -7 0 -9 -7 -13 -50
-1 -11 -5 -20 -9 -20 -6 0 -16 -24 -24 -55 -1 -5 -3 -12 -4 -15 -2 -3 -4 -12
-6 -20 -1 -8 -11 -42 -21 -75 -9 -33 -19 -67 -20 -75 -2 -8 -6 -27 -10 -42 -5
-22 -3 -28 9 -28 9 0 22 7 29 15 7 9 23 27 36 40 13 14 19 25 15 25 -4 0 -3 4
2 8 15 11 55 70 55 81 0 19 121 131 141 131 11 0 17 -4 14 -10 -3 -5 -2 -10 3
-10 10 0 9 -47 -2 -98 -4 -17 -7 -34 -7 -37 1 -3 -6 -19 -14 -35 -9 -17 -13
-30 -11 -30 3 0 -2 -17 -11 -37 -26 -61 -45 -154 -45 -219 0 -73 10 -142 23
-150 5 -3 7 -9 4 -14 -5 -9 54 -152 68 -161 5 -3 8 -10 8 -15 -1 -13 23 -64
30 -64 12 0 -2 -72 -16 -87 -8 -8 -15 -17 -15 -21 0 -8 -49 -32 -66 -32 -6 0
-15 -7 -18 -16 -3 -8 -10 -13 -15 -10 -9 6 -27 -51 -19 -59 1 -2 21 -6 43 -9
75 -11 95 -18 103 -32 12 -22 62 -24 97 -4 20 11 50 17 86 16 49 -1 54 1 55
21 1 12 -13 38 -31 58 -18 19 -30 35 -27 35 3 0 1 5 -6 12 -20 20 -14 54 15
83 27 26 32 27 98 22 39 -3 90 -13 115 -22 25 -9 77 -18 115 -21 75 -4 115
-10 123 -19 10 -9 2 -92 -13 -134 -16 -46 -16 -51 -1 -67 12 -12 49 0 74 23 8
8 24 10 38 7 13 -3 35 -7 49 -8 14 0 25 -5 25 -9 0 -11 43 3 52 17 4 6 8 7 8
3 0 -5 7 -2 15 5 30 27 45 38 50 38 45 -2 55 2 55 18 -1 24 -24 52 -44 52 -9
0 -16 4 -16 9 0 7 -74 23 -120 26 -29 2 -38 15 -35 53 4 48 15 83 25 77 5 -3
11 4 15 15 3 11 10 20 15 20 10 0 70 114 70 135 0 8 4 15 8 15 4 0 8 8 9 18 0
9 4 44 8 77 10 76 10 255 1 365 -9 105 -9 126 4 151 13 23 36 25 56 4 9 -8 13
-15 9 -15 -3 0 6 -11 20 -25 14 -14 26 -30 26 -35 1 -6 2 -13 3 -17 2 -9 35
-111 43 -133 8 -22 10 -110 2 -110 -6 0 -21 -54 -25 -92 0 -10 4 -22 11 -28
21 -18 53 20 60 70 4 25 10 61 14 80 4 20 7 43 5 53 -1 9 2 17 7 17 4 0 7 6 4
13 -2 6 -6 48 -9 92 -6 85 -11 119 -21 135 -3 5 -8 24 -10 42 -2 18 -7 44 -10
58 -3 14 -7 30 -9 37 -1 7 -5 16 -9 19 -4 4 -7 16 -7 26 0 10 -4 18 -10 18 -5
0 -10 8 -10 18 0 10 -8 27 -17 38 -10 11 -19 26 -21 33 -2 8 -12 25 -23 39
-10 14 -19 31 -19 38 0 7 -6 17 -12 21 -7 4 -22 24 -32 43 -11 19 -28 42 -38
51 -10 9 -15 19 -11 23 3 3 1 6 -5 6 -7 0 -12 6 -12 13 0 7 -8 22 -17 33 -16
17 -34 39 -113 138 -8 10 -24 28 -35 40 -35 36 -83 122 -97 173 -13 45 -14 74
-5 116 5 28 87 148 97 142 4 -3 10 2 13 10 4 8 24 25 45 39 44 28 72 53 72 66
0 5 -66 9 -147 8 -147 -1 -181 1 -238 19 -46 15 -145 17 -145 3z"/>
</g>
</svg>
